# xmcd
#
# Track frame offsets:
#	150
#	17874
#	36129
#	49942
#	59159
#	75559
#	91164
#	103672
#	123587
#	142833
#	157656
#	174034
#	193339
#	207999
#	229421
#	243663
#	258972
#	275917
#	292353
#	308804
#	328404
#
# Disc length: 4700 seconds
#
# Revision: 3
# Processed by: cddbd v1.5.2PL0 Copyright (c) Steve Scherf et al.
# Submitted via: audiograbber 1.83.01
#
DISCID=3e125a15
DTITLE=Various Artist - CDX 278
DYEAR=2001
DGENRE=Country
TTITLE0=George Jones - 50.000 Names
TTITLE1=Martina McBride - Blessed
TTITLE2=Blackhawk - Days Of America
TTITLE3=Tim Wilson - Father-in-Law
TTITLE4=Tammy Cochran - I Cry
TTITLE5=Trisha Yearwood (featuring Don Henley) - Inside Out
TTITLE6=Alan Jackson - It's Alright to be a Redneck
TTITLE7=Gary Morris - Lone Star Night
TTITLE8=Deryl Dodd - One Ride In Vegas
TTITLE9=South 65 - Only Perfect
TTITLE10=Lee Greenwood - Out Of Style
TTITLE11=Mark McGuinn - She Doesn't Dance
TTITLE12=The Great Divide - Wildhorses
TTITLE13=Garth Brooks - Wrapped Up In You
TTITLE14=Joseph James - The Honky Tonk Cafe
TTITLE15=Ronnie Lee Twist - Loose And Running Wild
TTITLE16=Donna Fargo - A Prayer For America
TTITLE17=Jana Stanfield - If I Were Brave
TTITLE18=John Wesley Ryles - In America
TTITLE19=John Arthur Martinez - Stand Your Ground
TTITLE20=Gary Morris (with Son Matt Morris) - Where Love is King
EXTD=
EXTT0=
EXTT1=
EXTT2=
EXTT3=
EXTT4=
EXTT5=
EXTT6=
EXTT7=
EXTT8=
EXTT9=
EXTT10=
EXTT11=
EXTT12=
EXTT13=
EXTT14=
EXTT15=
EXTT16=
EXTT17=
EXTT18=
EXTT19=
EXTT20=
PLAYORDER=
